Coordinates
version=1
nRows=10
nColumns=40
inDegrees=yes

Units are S.I. units (second, meters, Newtons, ...)
Angles are in degrees.

endheader
time	pelvis_tilt	pelvis_list	pelvis_rotation	pelvis_tx	pelvis_ty	pelvis_tz	hip_flexion_r	hip_adduction_r	hip_rotation_r	knee_angle_r	knee_angle_r_beta	ankle_angle_r	subtalar_angle_r	mtp_angle_r	hip_flexion_l	hip_adduction_l	hip_rotation_l	knee_angle_l	knee_angle_l_beta	ankle_angle_l	subtalar_angle_l	mtp_angle_l	lumbar_extension	lumbar_bending	lumbar_rotation	arm_flex_r	arm_add_r	arm_rot_r	elbow_flex_r	pro_sup_r	wrist_flex_r	wrist_dev_r	arm_flex_l	arm_add_l	arm_rot_l	elbow_flex_l	pro_sup_l	wrist_flex_l	wrist_dev_l
      0.00000000	      0.95077223	     -4.56091349	      3.65158943	     -1.07372962	      0.86665762	      0.95428893	     28.34179878	      0.04569971	    -21.01223435	    -17.91764004	     -0.31272181	     -1.84309048	      3.83405334	     -2.17844933	    -17.35259526	      2.50404595	      7.41996725	    -16.40037078	     -0.28624047	      9.65298326	    -13.33344190	     -6.46263537	     -8.84639862	      7.28292686	     -6.61486154	     -4.08945585	     -8.50096099	     10.49169651	      8.18517787	     89.95437384	      0.00000000	      0.00000000	     18.68570943	      8.97816247	    -19.23658959	     51.54299266	     89.95437384	      0.00000000	      0.00000000
      0.01000000	      0.89305568	     -4.66388994	      3.73411595	     -1.05890419	      0.86586879	      0.95520355	     28.37140196	      0.33646761	    -20.17746713	    -19.27736864	     -0.33645355	     -2.31507438	      3.49379362	     -2.12883997	    -17.58552438	      2.77605954	      6.66531183	    -17.58878702	     -0.30698224	      8.81477303	    -12.56643143	     -6.30336799	     -8.55779050	      7.50747954	     -6.44222926	     -4.34143791	     -8.67887910	     10.53994060	      8.27123258	     89.95437384	      0.00000000	      0.00000000	     18.30215643	      8.85757049	    -19.05538657	     52.38500762	     89.95437384	      0.00000000	      0.00000000
      0.02000000	      0.84978492	     -5.03196238	      3.97404257	     -1.04383668	      0.86542667	      0.95626080	     28.26378076	      0.98189709	    -19.40423198	    -20.21412983	     -0.35280312	     -5.88644611	      0.33837547	     -1.61370506	    -17.54421889	      3.51648022	      6.42457108	    -19.24405328	     -0.33587209	      7.49277308	    -12.13009147	     -7.06320677	     -8.21274624	      8.02039887	     -6.83317304	     -4.04351408	     -8.73820006	     11.15683089	      7.58313057	     89.95437384	      0.00000000	      0.00000000	     17.39735667	      8.87042796	    -18.06014294	     53.62641128	     89.95437384	      0.00000000	      0.00000000
      0.03000000	      0.70422408	     -5.14552542	      3.91823611	     -1.02883267	      0.86518191	      0.95742532	     28.47377096	      1.29868307	    -18.07946109	    -21.66307885	     -0.37809205	     -8.00370158	      0.15102671	     -1.36423143	    -17.30594491	      3.79958026	      6.01417133	    -21.05059045	     -0.36740211	      5.94807955	    -11.23018654	     -6.85823178	     -7.81883565	      8.23218507	     -6.71224364	     -3.99254683	     -8.85345959	     11.28581102	      7.37492832	     89.95437384	      0.00000000	      0.00000000	     16.74095860	      8.83721072	    -17.70230740	     54.36856586	     89.95437384	      0.00000000	      0.00000000
      0.04000000	      0.47720691	     -5.49664823	      3.82339546	     -1.01378038	      0.86526843	      0.95886033	     28.86196353	      1.83159198	    -16.86577120	    -23.31360996	     -0.40689925	     -7.92015242	     -0.55468726	     -1.37128558	    -16.62248405	      4.38009392	      5.95031234	    -23.38072667	     -0.40807066	      4.08796391	    -10.23200678	     -6.58518374	     -7.32167675	      8.69307652	     -6.59141077	     -3.88888576	     -9.00705075	     11.44203975	      7.22167353	     89.95437384	      0.00000000	      0.00000000	     15.97438557	      8.70621311	    -17.09584515	     54.90457067	     89.95437384	      0.00000000	      0.00000000
      0.05000000	     -0.24558160	     -6.03689631	      3.65798929	     -0.99906102	      0.86486842	      0.96079152	     29.83149930	      2.75355781	    -15.33154333	    -25.10278624	     -0.43812627	     -7.43989586	     -4.61652341	     -0.91546564	    -14.83723208	      5.43925760	      6.74917348	    -26.60035356	     -0.46426375	      1.49251516	    -11.01121054	     -7.04764285	     -6.28753252	      9.28236668	     -6.49146694	     -3.79217623	     -9.15328216	     11.76451117	      7.17856394	     89.95437384	      0.00000000	      0.00000000	     14.99514019	      8.52859381	    -16.21029831	     55.39819549	     89.95437384	      0.00000000	      0.00000000
      0.06000000	     -0.05282918	     -6.25266327	      3.53891919	     -0.98342036	      0.86623777	      0.96190220	     29.55383898	      3.06999309	    -14.98211915	    -26.90319987	     -0.46954942	     -6.25497587	     -5.46519862	     -0.83001394	    -14.25561240	      5.88851700	      6.91941825	    -29.22391935	     -0.51005361	     -1.62543192	     -9.27794216	     -6.46451077	     -6.23661030	      9.62437415	     -6.17377035	     -3.71495622	     -9.36731089	     11.90311932	      7.29332314	     89.95437384	      0.00000000	      0.00000000	     14.29570564	      8.36649483	    -15.95397788	     55.46764867	     89.95437384	      0.00000000	      0.00000000
      0.07000000	     -0.30121147	     -6.89949722	      3.11447105	     -0.96814293	      0.86701814	      0.96454941	     29.46162600	      4.57497610	    -13.06478422	    -27.86415061	     -0.48632117	     -5.62885654	     -7.63355839	      0.28886977	    -12.72009261	      7.25756838	      8.41555658	    -32.54185030	     -0.56796243	     -6.30146556	     -9.98107281	     -6.75261318	     -5.71071578	     10.27622350	     -5.65189918	     -3.58705779	     -9.51934289	     12.43927591	      7.39460732	     89.95437384	      0.00000000	      0.00000000	     13.44015102	      8.29400483	    -15.52268734	     55.53977421	     89.95437384	      0.00000000	      0.00000000
      0.08000000	      0.02298853	     -6.99262525	      3.17395153	     -0.95281076	      0.86897020	      0.96542869	     28.56706791	      4.96871181	    -12.43356280	    -28.83379440	     -0.50324465	     -4.42108753	     -7.69026228	      0.33471653	    -11.74633637	      7.66859205	      8.32863933	    -35.46422570	     -0.61896751	    -10.85620268	     -7.72991677	     -5.87163178	     -5.81381923	     10.46037639	     -5.48216662	     -3.36439507	     -9.67196849	     12.54802655	      7.59647959	     89.95437384	      0.00000000	      0.00000000	     12.80856642	      8.19136422	    -15.36521607	     55.25226072	     89.95437384	      0.00000000	      0.00000000
      0.09000000	      0.04917423	     -7.57018433	      2.92950573	     -0.93762882	      0.87038673	      0.96766367	     27.80810124	      6.31902548	    -11.14431608	    -29.30665696	     -0.51149766	     -3.53199997	     -9.67236588	      1.54409404	    -10.29920699	      8.84097674	      8.71559855	    -38.46437026	     -0.67132991	    -16.09694814	     -6.73737978	     -5.60132982	     -5.62117518	     11.05164931	     -5.00183106	     -3.15617068	     -9.84516218	     12.96250526	      7.87885782	     89.95437384	      0.00000000	      0.00000000	     12.02284023	      8.07412905	    -15.01169202	     55.04659406	     89.95437384	      0.00000000	      0.00000000
